<svg xmlns="http://www.w3.org/2000/svg" width="82" height="491" viewBox="0 0 82 491">
  <g id="Group_20" data-name="Group 20" transform="translate(-1838 -336)">
    <rect id="Rectangle_25" data-name="Rectangle 25" width="82" height="491" transform="translate(1838 336)" fill="#360033" opacity="0"/>
    <path id="iconmonstr-instagram-14" d="M33.365,14.179c-1.66-.076-2.16-.09-6.365-.09s-4.7.016-6.363.09c-4.273.2-6.262,2.218-6.457,6.457-.074,1.66-.092,2.158-.092,6.363s.018,4.7.092,6.365c.2,4.228,2.176,6.262,6.457,6.458,1.658.074,2.158.092,6.363.092s4.7-.016,6.365-.092c4.273-.194,6.26-2.223,6.458-6.458.074-1.66.09-2.16.09-6.365s-.016-4.7-.09-6.363c-.2-4.237-2.189-6.262-6.458-6.457ZM27,35.089A8.088,8.088,0,1,1,35.089,27,8.089,8.089,0,0,1,27,35.089Zm8.408-14.6a1.89,1.89,0,1,1,1.89-1.89A1.89,1.89,0,0,1,35.408,20.484ZM32.249,27A5.249,5.249,0,1,1,27,21.751,5.249,5.249,0,0,1,32.249,27ZM27,0A27,27,0,1,0,54,27,27,27,0,0,0,27,0ZM42.655,33.493c-.259,5.726-3.447,8.9-9.16,9.162-1.681.076-2.219.094-6.5.094s-4.813-.018-6.493-.094c-5.724-.263-8.9-3.44-9.162-9.162-.076-1.678-.094-2.216-.094-6.493s.018-4.813.094-6.493c.263-5.724,3.44-8.9,9.162-9.16,1.681-.079,2.216-.1,6.493-.1s4.815.018,6.5.1c5.726.263,8.9,3.447,9.16,9.16.077,1.681.095,2.216.095,6.493S42.732,31.815,42.655,33.493Z" transform="translate(1852 349)" fill="#050534"/>
    <path id="iconmonstr-facebook-4" d="M27,0A27,27,0,1,0,54,27,27,27,0,0,0,27,0Zm6.75,18H30.712c-1.211,0-1.462.5-1.462,1.75V22.5h4.5L33.28,27H29.25V42.75H22.5V27H18V22.5h4.5V17.307c0-3.98,2.095-6.057,6.815-6.057H33.75Z" transform="translate(1852 416.5)" fill="#050534"/>
    <path id="iconmonstr-github-4" d="M27,0A27,27,0,1,0,54,27,27,27,0,0,0,27,0Zm4.991,41.886c-.8.155-1.053-.335-1.053-.756V36.808a3.756,3.756,0,0,0-1.082-2.916c3.51-.389,7.2-1.721,7.2-7.772a6.089,6.089,0,0,0-1.622-4.228,5.667,5.667,0,0,0-.155-4.169s-1.321-.423-4.327,1.613a15.015,15.015,0,0,0-7.891,0c-3.008-2.036-4.331-1.613-4.331-1.613a5.661,5.661,0,0,0-.151,4.167,6.091,6.091,0,0,0-1.625,4.228c0,6.034,3.677,7.384,7.175,7.783a3.356,3.356,0,0,0-1,2.106A3.353,3.353,0,0,1,18.542,34.7a3.314,3.314,0,0,0-2.414-1.625s-1.537-.02-.108.958a4.153,4.153,0,0,1,1.748,2.3s.911,2.813,5.294,1.859v2.932c0,.416-.254.9-1.04.758a15.743,15.743,0,1,1,9.968,0Z" transform="translate(1852 485)" fill="#050534"/>
    <path id="iconmonstr-linkedin-4" d="M27,0A27,27,0,1,0,54,27,27,27,0,0,0,27,0ZM22.5,36H18V22.5h4.5ZM20.25,20.5A2.5,2.5,0,1,1,22.725,18,2.485,2.485,0,0,1,20.25,20.5Zm18,15.5h-4.5V29.563c0-4.232-4.5-3.875-4.5,0V36h-4.5V22.5h4.5v2.459c1.962-3.636,9-3.906,9,3.483Z" transform="translate(1852 555)" fill="#050534"/>
    <path id="telegram-4" d="M27,0A27,27,0,1,0,54,27,27,27,0,0,0,27,0Zm7.254,40.21a1.566,1.566,0,0,0,1.453.191,1.527,1.527,0,0,0,.949-1.1C37.8,33.937,40.565,20.369,41.6,15.5a1.028,1.028,0,0,0-.34-1,1.058,1.058,0,0,0-1.046-.184c-5.5,2.038-22.453,8.4-29.38,10.96a1.08,1.08,0,0,0,.068,2.052c3.107.929,7.184,2.223,7.184,2.223s1.906,5.756,2.9,8.681a1.151,1.151,0,0,0,.792.756,1.136,1.136,0,0,0,1.066-.272l4.061-3.834s4.689,3.436,7.349,5.33ZM19.8,28.82l2.2,7.27.491-4.6s8.512-7.679,13.367-12.056a.366.366,0,0,0,.043-.5.371.371,0,0,0-.493-.083L19.8,28.82Z" transform="translate(1852 623)" fill="#050534" fill-rule="evenodd"/>
    <path id="iconmonstr-twitter-4" d="M27,0A27,27,0,1,0,54,27,27,27,0,0,0,27,0ZM40.648,21.7c.412,9.09-6.368,19.224-18.369,19.224a18.285,18.285,0,0,1-9.9-2.9,13,13,0,0,0,9.567-2.675A6.477,6.477,0,0,1,15.9,30.856a6.482,6.482,0,0,0,2.92-.11,6.472,6.472,0,0,1-5.184-6.419,6.447,6.447,0,0,0,2.927.808,6.472,6.472,0,0,1-2-8.629,18.344,18.344,0,0,0,13.32,6.752A6.467,6.467,0,0,1,38.9,17.363,12.891,12.891,0,0,0,43,15.8a6.489,6.489,0,0,1-2.842,3.575,12.892,12.892,0,0,0,3.71-1.019A12.972,12.972,0,0,1,40.648,21.7Z" transform="translate(1852 691)" fill="#050534"/>
    <path id="iconmonstr-whatsapp-4" d="M27.07,13.887A13,13,0,0,0,16.385,34.256l-1.31,4.788,4.91-1.289A12.988,12.988,0,0,0,40.039,26.872,12.969,12.969,0,0,0,27.07,13.887ZM34.7,32.436a4.015,4.015,0,0,1-2.632,1.854,5.335,5.335,0,0,1-2.457-.155,22.643,22.643,0,0,1-2.223-.821c-3.913-1.69-6.467-5.63-6.662-5.888a7.583,7.583,0,0,1-1.593-4.034A4.371,4.371,0,0,1,20.5,20.138a1.436,1.436,0,0,1,1.039-.488l.747.013c.239.011.56-.09.878.671.324.781,1.1,2.7,1.2,2.9a.72.72,0,0,1,.031.684,2.7,2.7,0,0,1-.389.65l-.585.684c-.2.194-.4.405-.171.8a11.753,11.753,0,0,0,2.169,2.7,10.585,10.585,0,0,0,3.137,1.935c.389.193.617.162.846-.1s.974-1.139,1.235-1.53.52-.326.878-.2,2.275,1.073,2.664,1.269.65.292.747.454a3.2,3.2,0,0,1-.225,1.854ZM27,0A27,27,0,1,0,54,27,27,27,0,0,0,27,0Zm.065,42.48a15.625,15.625,0,0,1-7.465-1.9L11.327,42.75l2.214-8.089A15.608,15.608,0,1,1,27.065,42.48Z" transform="translate(1852 759)" fill="#050534"/>
  </g>
</svg>
