<svg xmlns="http://www.w3.org/2000/svg" width="40" height="280" viewBox="0 0 40 280">
  <g id="Group_8" data-name="Group 8" transform="translate(-1852 -336)">
    <path id="Path_3" data-name="Path 3" d="M0,0H40V280H0Z" transform="translate(1852 336)" fill="#360033" opacity="0"/>
    <path id="iconmonstr-instagram-14" d="M24.715,10.5c-1.23-.057-1.6-.067-4.715-.067s-3.483.012-4.713.067c-3.165.145-4.638,1.643-4.783,4.783-.055,1.23-.068,1.6-.068,4.713s.013,3.483.068,4.715c.145,3.132,1.612,4.638,4.783,4.783,1.228.055,1.6.068,4.713.068s3.485-.012,4.715-.068c3.165-.143,4.637-1.647,4.783-4.783.055-1.23.067-1.6.067-4.715s-.012-3.483-.067-4.713c-.147-3.138-1.622-4.638-4.783-4.783ZM20,25.992A5.991,5.991,0,1,1,25.992,20,5.992,5.992,0,0,1,20,25.992Zm6.228-10.818a1.4,1.4,0,1,1,1.4-1.4A1.4,1.4,0,0,1,26.228,15.173ZM23.888,20A3.888,3.888,0,1,1,20,16.112,3.888,3.888,0,0,1,23.888,20ZM20,0A20,20,0,1,0,40,20,20,20,0,0,0,20,0ZM31.6,24.81C31.4,29.052,29.043,31.4,24.812,31.6c-1.245.057-1.643.07-4.812.07s-3.565-.013-4.81-.07C10.95,31.4,8.6,29.048,8.4,24.81c-.057-1.243-.07-1.642-.07-4.81s.013-3.565.07-4.81C8.6,10.95,10.952,8.6,15.19,8.405c1.245-.058,1.642-.072,4.81-.072s3.567.013,4.812.072c4.242.2,6.6,2.553,6.785,6.785.057,1.245.07,1.642.07,4.81S31.653,23.567,31.6,24.81Z" transform="translate(1852 336)" fill="#050534"/>
    <path id="iconmonstr-facebook-4" d="M20,0A20,20,0,1,0,40,20,20,20,0,0,0,20,0Zm5,13.333H22.75c-.9,0-1.083.368-1.083,1.3v2.037H25L24.652,20H21.667V31.667h-5V20H13.333V16.667h3.333V12.82c0-2.948,1.552-4.487,5.048-4.487H25Z" transform="translate(1852 376)" fill="#050534"/>
    <path id="iconmonstr-github-4" d="M20,0A20,20,0,1,0,40,20,20,20,0,0,0,20,0Zm3.7,31.027c-.59.115-.78-.248-.78-.56v-3.2a2.782,2.782,0,0,0-.8-2.16c2.6-.288,5.33-1.275,5.33-5.757a4.511,4.511,0,0,0-1.2-3.132,4.2,4.2,0,0,0-.115-3.088s-.978-.313-3.2,1.2a11.122,11.122,0,0,0-5.845,0c-2.228-1.508-3.208-1.2-3.208-1.2a4.194,4.194,0,0,0-.112,3.087,4.512,4.512,0,0,0-1.2,3.132c0,4.47,2.723,5.47,5.315,5.765a2.486,2.486,0,0,0-.74,1.56,2.483,2.483,0,0,1-3.4-.97,2.455,2.455,0,0,0-1.788-1.2s-1.138-.015-.08.71a3.076,3.076,0,0,1,1.3,1.707s.675,2.083,3.922,1.377v2.172c0,.308-.188.67-.77.562a11.662,11.662,0,1,1,7.383,0Z" transform="translate(1852 416)" fill="#050534"/>
    <path id="iconmonstr-linkedin-4" d="M20,0A20,20,0,1,0,40,20,20,20,0,0,0,20,0ZM16.667,26.667H13.333v-10h3.333ZM15,15.182a1.848,1.848,0,1,1,1.833-1.848A1.841,1.841,0,0,1,15,15.182ZM28.333,26.667H25V21.9c0-3.135-3.337-2.87-3.337,0v4.768H18.333v-10h3.333v1.822c1.453-2.693,6.667-2.893,6.667,2.58Z" transform="translate(1852 456)" fill="#050534"/>
    <path id="telegram-4" d="M20,0A20,20,0,1,0,40,20,20,20,0,0,0,20,0Zm5.373,29.785a1.16,1.16,0,0,0,1.077.142,1.131,1.131,0,0,0,.7-.818c.845-3.97,2.895-14.02,3.663-17.63a.761.761,0,0,0-.252-.738.784.784,0,0,0-.775-.137c-4.077,1.51-16.632,6.22-21.763,8.118a.8.8,0,0,0,.05,1.52c2.3.688,5.322,1.647,5.322,1.647s1.412,4.263,2.147,6.43a.853.853,0,0,0,.587.56.841.841,0,0,0,.79-.2l3.008-2.84s3.473,2.545,5.443,3.948Zm-10.7-8.437L16.3,26.733l.363-3.41s6.3-5.688,9.9-8.93a.271.271,0,0,0,.032-.367.275.275,0,0,0-.365-.062L14.668,21.348Z" transform="translate(1852 496)" fill="#050534" fill-rule="evenodd"/>
    <path id="iconmonstr-twitter-4" d="M20,0A20,20,0,1,0,40,20,20,20,0,0,0,20,0ZM30.11,16.075A13.613,13.613,0,0,1,9.167,28.163a9.631,9.631,0,0,0,7.087-1.982,4.8,4.8,0,0,1-4.473-3.325,4.8,4.8,0,0,0,2.163-.082A4.794,4.794,0,0,1,10.1,18.02a4.776,4.776,0,0,0,2.168.6,4.794,4.794,0,0,1-1.482-6.392,13.588,13.588,0,0,0,9.867,5,4.791,4.791,0,0,1,8.158-4.367,9.549,9.549,0,0,0,3.04-1.162,4.807,4.807,0,0,1-2.105,2.648,9.55,9.55,0,0,0,2.748-.755A9.609,9.609,0,0,1,30.11,16.075Z" transform="translate(1852 536)" fill="#050534"/>
    <path id="iconmonstr-whatsapp-4" d="M20.052,10.287a9.628,9.628,0,0,0-7.915,15.088l-.97,3.547,3.637-.955A9.621,9.621,0,0,0,29.658,19.9,9.607,9.607,0,0,0,20.052,10.287Zm5.653,13.74a2.974,2.974,0,0,1-1.95,1.373,3.952,3.952,0,0,1-1.82-.115,16.772,16.772,0,0,1-1.647-.608,12.892,12.892,0,0,1-4.935-4.362,5.617,5.617,0,0,1-1.18-2.988,3.238,3.238,0,0,1,1.012-2.41,1.063,1.063,0,0,1,.77-.362l.553.01c.177.008.415-.067.65.5s.818,2,.89,2.145a.534.534,0,0,1,.023.507,2,2,0,0,1-.288.482l-.433.507c-.145.143-.3.3-.127.59a8.706,8.706,0,0,0,1.607,2,7.841,7.841,0,0,0,2.323,1.433c.288.143.457.12.627-.072s.722-.843.915-1.133.385-.242.65-.145,1.685.8,1.973.94.482.217.553.337a2.371,2.371,0,0,1-.167,1.373ZM20,0A20,20,0,1,0,40,20,20,20,0,0,0,20,0Zm.048,31.467a11.574,11.574,0,0,1-5.53-1.407L8.39,31.667l1.64-5.992a11.561,11.561,0,1,1,10.018,5.792Z" transform="translate(1852 576)" fill="#050534"/>
  </g>
</svg>
